<svg height="512" width="512" xmlns="http://www.w3.org/2000/svg"><circle cx="387" cy="331" r="25"/><path fill="#0272eb" d="M442 441c0-30.327-24.673-55-55-55s-55 24.673-55 55v17.229C348.607 466.401 367.275 471 387 471s38.393-4.599 55-12.771z"/><path d="M387 221c-68.925 0-125 56.075-125 125 0 36.17 15.448 68.794 40.085 91.64 1.187-30.35 18.357-56.652 43.315-70.723C337.062 357.273 332 344.72 332 331c0-30.327 24.673-55 55-55s55 24.673 55 55c0 13.72-5.062 26.273-13.4 35.917 24.958 14.071 42.128 40.373 43.315 70.723C496.552 414.794 512 382.17 512 346c0-68.925-56.075-125-125-125z"/><path fill="#0272eb" d="M50 246c-27.57 0-50-22.43-50-50s22.43-50 50-50 50 22.43 50 50-22.43 50-50 50z"/><path d="M119.37 156.231a79.385 79.385 0 019.813 28.438l131.126-56.52a70.021 70.021 0 01-15.091-26.163z"/><path fill="#0272eb" d="M129.183 207.331a79.385 79.385 0 01-9.813 28.438l123.49 53.229a154.709 154.709 0 0113.761-26.736z"/><path d="M312 121c-22.056 0-40-17.944-40-40s17.944-40 40-40 40 17.944 40 40-17.944 40-40 40z"/></svg>